
<svg xmlns="http://www.w3.org/2000/svg">
	<symbol id="apple" xmlns="http://www.w3.org/2000/svg" viewBox="0 0 500 500">
		<g>
			<title> Apple </title>
			<path d="M475.3,223c-4.4-19.4-16.3-64.3-57.2-97.4c-9.2-7.4-36.7-29.2-76-32.5c-10.5-0.9-21.3,1.1-21.3,1.1
				c-14.8,1.9-23.8,5.6-35.1,9.2c-3.4,1.1-25.3,7.9-41.9,9.4c-1.4,0.1-2.7,0.2-4.1,0.3c-4.4-18.7-5.6-38.9,8.1-48
				c7.3-4.9,16.7-5.1,19.3-11.9c3.9-10-9.7-26-21.7-25.8c-16,0.2-25.6,29-26.5,31.8c-6.1,18.3-3.4,36.7,2.4,52.2
				c-17.7-4.2-29.6-14.7-54.3-16.5c-25.7-1.9-45.7,6.9-57.2,12c-54.1,23.8-84.4,91.5-88.3,146.1c-8.9,126,120.2,227.4,176.3,222.1
				c5.2-0.5,24.3-3.3,52.1-3.4c28-0.1,46.1,2.7,54.7,3.4c60.8,5,120.3-55.9,123.9-59.8C499.3,336.7,477.1,231,475.3,223z M61.6,220.8
				c-6.1-6.7,13.4-49.9,46.5-73.9c22.5-16.3,55.3-26.7,59.1-19.2C174.8,142.6,72.4,232.7,61.6,220.8z"/>
		</g>
	</symbol>
	
	<symbol id="banana" xmlns="http://www.w3.org/2000/svg" viewBox="0 0 500 500">
		<g>
			<title> Banana </title>
			<path d="M471.8,453C471.8,453,471.8,453,471.8,453c-17.9-3-41.5-7.9-68.8-15.9c-24.1-7.1-72.2-23-128.1-54.9
				c-36.2-20.7-66.6-38-99.9-71.6c-42.1-42.4-63.2-84.8-70.2-99.8c-17.6-37.8-25.7-73.4-32.6-104.1c-5-22.1-8.4-41.1-8-41.2
				c0.6-0.2,7.3,33.6,21,76.6c5.6,17.6,11.2,35.2,19.7,54.5c7.7,17.6,31,67,79.4,114.6c0,0,29.5,28.8,66.6,52
				C261.7,370.1,274,377,274,377c7.4,4.2,12.9,7.1,17.4,9.4c21,11,37.2,18.5,41,20.3c11.4,5.2,20.1,8.9,25.1,10.9l0,0
				c20.7,7.5,32.8,11.3,61.9,20.7c0,0,35.7,11.6,52.2,14.7C471.6,453,471.8,453,471.8,453L471.8,453c-16.4-39.5-71.4-51-139.1-85.6
				c-17.9-9.2-53.1-28.7-90.5-58c-31.6-24.8-58.4-45.8-81.1-79.2c-36.2-53.4-65-143-89.7-163c-2.1-1.7-8-6.5-15.4-6c0,0-0.2,0-0.4,0
				l2.2-28.6l0.9-12.3c-0.2,0-0.5-0.1-0.7-0.1l-18,0.4l-0.2,6.4l-1.7,45.9c-1.7,2-3,3.7-3.6,4.7c-7.3,11.3-25.6,67.6,3.9,151.7
				c10.7,30.6,27,75.3,68.4,122.4c79.8,90.6,185,113,220.2,119.9c50.3,10,136.5,17.4,146-5.6C474.8,462,473.8,457.9,471.8,453z"/>
		</g>
	</symbol>
	
	<symbol id="carrot" xmlns="http://www.w3.org/2000/svg" viewBox="0 0 500 500">
		<g>
			<title> Carrot </title>
			<path d="M433.7,425.2c-135.1-199.3-166-323.3-217.2-318.4c-12.4,1.2-25.9,9.9-38.1,21.9c0-0.1-0.1-0.2-0.1-0.2
				c3.8-9.1,7.7-32.1,8.9-50.3c0.6-9,1.1-16.2-0.8-17.1c-3.1-1.5-12.5,15.8-15.1,35.1c-0.1,1-0.3,2-0.4,3c-1.9-9.4-2.2-13.9-4.1-24.2
				c-0.6-3.6-7.4-40.6-11.1-40.2c-2.9,0.3-3.4,23.5-3.5,28.2c-0.4,16,1.1,23-1.2,23.9c-3.3,1.2-9.4-11.9-19.5-25.3
				c-18.8-24.9-43.5-40.1-46-37.6c-3.8,3.7,40.5,50.7,35.1,56.2c-1.3,1.4-5.4,0-20-8.6c-10.9-6.4-19.8-12-32.7-20.6
				c-14.4-9.7-21.7-14.5-22.5-13.7c-2.1,2.1,11,19.6,24.2,33.7c17.9,19.1,32.2,28,30.7,30.7c-1.3,2.3-12.6-3.6-34.8-9.2
				c-14.3-3.6-35.1-7.6-36-5c-0.4,1.3,4.3,3.9,30.8,17.5c21,10.8,30.1,15.4,29.4,17.7c-0.6,2.1-8.8-0.4-22.6,1.6
				c-10.4,1.5-22,5.3-21.8,7.5c0.4,3.8,37.1,0.6,67,10.3c-19,0.8-36.3,3.3-36.4,6.1c-0.1,3,20.4,6.3,38.6,5.9
				c6.4-0.1,12.9-0.7,18.7-1.5c2.6,1.9,5.1,4.2,7.4,6.9c3.7,4.1,6.1,8,7.5,10.8c-4,8.1-8.1,17.9-9.5,24.8
				c-17,88.7,310.8,311.8,326.5,283.5C468.2,473.3,459.1,462.6,433.7,425.2z M150.7,218.7c-1.1-0.4,7.6-27,30.1-53.1
				c10.6-12.3,22.3-22.2,23-21.6c0.8,0.6-12.1,13.3-27.2,33.8C158.4,202.7,151.6,219,150.7,218.7z M161,240.5
				c-0.8-0.4,6.3-22.3,23.3-43.3c8.1-9.9,16.8-17.8,17.3-17.3c0.6,0.5-9.2,10.7-20.7,27.3C167,227.4,161.6,240.8,161,240.5z
				 M173,256.6c-0.6-0.4,5.9-20.4,20.4-39.2c6.9-8.9,14.2-15.8,14.6-15.4c0.4,0.5-7.8,9.6-17.7,24.5
				C178.3,244.7,173.5,256.9,173,256.6z M196.7,249.9c-8.6,14.5-12.1,24.2-12.4,23.9c-0.4-0.3,4.3-16.2,14.6-31.2
				c4.9-7.1,10.1-12.6,10.4-12.3C209.6,230.7,203.8,238,196.7,249.9z"/>
		</g>
	</symbol>
	
	<symbol id="eggplant" xmlns="http://www.w3.org/2000/svg" viewBox="0 0 500 500">
		<g>
			<title> Eggplant </title>
			<path d="M379.2,195.1c-34-31.2-74.2-50.4-113.5-57.1c-21-61.1-70.6-101.8-122.4-95.3c-10.6,1.3-20.5,4.5-29.7,9.3L105.3,23
				l-10.4,4.9l9.7,29.5C92.5,67.3,69.7,89,57.2,123.9c0,0-12.7,35.5-6.9,80.1c0.9,7.1,2.4,14.2,2.4,14.2c0.4,2.4,1,5.2,1.9,8.2
				c3.6,14.3,8.7,27.6,15,39.8c6.6,14.8,14.9,31.5,24.4,48.7c7.8,14.1,15.7,27.4,23.2,39.1c11.8,23.1,28.3,45.1,49.4,64.5
				c78.1,71.8,189,80,247.7,18.2C473.1,375.2,457.3,266.9,379.2,195.1z M387.4,236.2c-7.2,13.3-158.5-61.7-154.1-74.9
				c1-3,10-2.1,27.3-0.3c41.4,4.3,70.2,22.4,79.7,28.8C360.3,203.3,391,229.8,387.4,236.2z"/>
		</g>
	</symbol>
	
	<symbol id="grapes" xmlns="http://www.w3.org/2000/svg" viewBox="0 0 500 500">
		<g>
			<title> Grapes </title>
			<path class="grapes" d="M152.6,106.1c3.9-4.3-37.5-40.1-27.3-59.1c4-7.3,13.5-8.2,13.3-13.7c-0.3-6.7-14.9-14.7-24.6-10.9
				c-11.3,4.4-13.7,24-11.6,36.5C107.7,92,149.1,109.9,152.6,106.1z"/>
			
			<ellipse transform="matrix(0.9505 -0.3106 0.3106 0.9505 -115.8093 145.3241)" class="st1" cx="398.3" cy="436.2" rx="50" ry="50"/>
			<ellipse transform="matrix(0.9505 -0.3106 0.3106 0.9505 -21.2841 62.9575)" class="st1" cx="187" cy="98.3" rx="50" ry="50"/>
			<ellipse transform="matrix(0.9505 -0.3106 0.3106 0.9505 -35.498 46.0034)" class="st1" cx="126.7" cy="134.4" rx="50" ry="50"/>
			<ellipse transform="matrix(0.9505 -0.3106 0.3106 0.9505 -19.2256 86.8169)" class="st1" cx="262.9" cy="103.8" rx="56" ry="56"/>
			<ellipse transform="matrix(0.9505 -0.3106 0.3106 0.9505 -57.3766 41.2603)" class="st1" cx="100.8" cy="200.8" rx="50" ry="50"/>
			<ellipse transform="matrix(0.9505 -0.3106 0.3106 0.9505 -94.5618 133.4889)" class="st1" cx="371.8" cy="363.6" rx="50" ry="50"/>
			<ellipse transform="matrix(0.9505 -0.3106 0.3106 0.9505 -80.4781 115.3223)" class="st1" cx="321.8" cy="310.3" rx="50" ry="50"/>
			<ellipse transform="matrix(0.9505 -0.3106 0.3106 0.9505 -113.0038 117.676)" class="st1" cx="312.9" cy="413.6" rx="50" ry="50"/>
			<ellipse transform="matrix(0.9505 -0.3106 0.3106 0.9505 -90.9748 68.5882)" class="st1" cx="169.8" cy="319.9" rx="50" ry="50"/>
			<ellipse transform="matrix(0.9505 -0.3106 0.3106 0.9505 -58.7052 116.7775)" class="st1" cx="337.3" cy="242.7" rx="50" ry="50"/>
			<ellipse transform="matrix(0.9505 -0.3106 0.3106 0.9505 -74.9309 56.8701)" class="st1" cx="141.1" cy="263.7" rx="50" ry="50"/>
			<ellipse transform="matrix(0.9505 -0.3106 0.3106 0.9505 -34.5822 105.4427)" class="st1" cx="313.7" cy="161.3" rx="50" ry="50"/>
			<ellipse transform="matrix(0.9505 -0.3106 0.3106 0.9505 -47.5619 94.1563)" class="st1" cx="271.8" cy="196.4" rx="50" ry="50"/>
			<ellipse transform="matrix(0.9505 -0.3106 0.3106 0.9505 -60.5172 75.7822)" class="st1" cx="207.7" cy="227.9" rx="50" ry="50"/>
			<ellipse transform="matrix(0.9505 -0.3106 0.3106 0.9505 -75.9502 95.8511)" class="st1" cx="262.9" cy="286.4" rx="50" ry="50"/>
			
			<ellipse transform="matrix(0.9505 -0.3106 0.3106 0.9505 -101.2853 103.8318)" class="st1" cx="275.3" cy="369.9" rx="50" ry="50"/>
			<ellipse transform="matrix(0.9505 -0.3106 0.3106 0.9505 -31.1074 74.977)" class="st1" cx="219.8" cy="135.1" rx="50" ry="50"/>
			<ellipse transform="matrix(0.9505 -0.3106 0.3106 0.9505 -51.1763 59.5439)" class="st1" cx="161.3" cy="190.4" rx="50" ry="50"/>
			<ellipse transform="matrix(0.806 -0.5919 0.5919 0.806 -177.6322 197.8061)" class="st1" cx="213" cy="369.9" rx="50" ry="50"/>
			<ellipse transform="matrix(0.9505 -0.3106 0.3106 0.9505 -83.1235 81.8619)" class="st1" cx="215.4" cy="301.9" rx="50" ry="50"/>
		</g>
	</symbol>
	
	<symbol id="pineapple" xmlns="http://www.w3.org/2000/svg" viewBox="0 0 500 500">
		<g>
			<title> Pineapple </title>
			<path class="pineapple" d="M306.7,173.7c-0.9-0.4-1.7-0.9-2.6-1.3l40.8-99.1l-40.7,47.7l8.1-85.7l-38.8,78.9l14.5-62.6l-34.1,53.9
				l-4.9-78.7l-22.8,77L212.4,22l-14.8,85.5l-28.1-81.8l-0.7,100.8l-37.1-34.6l42.7,86.3C122.1,212.5,122.9,305.4,123,321
				c0.7,79.9,41.6,147,68.7,154c1.7,0.4,22,5.4,46.8,6c4.6,0.1,8.8,0,10.3,0c0,0,21.1-0.4,37.5-3.3c22-3.9,76-67.9,78-157.3
				C364.5,308.8,366.8,204.4,306.7,173.7z"/>
		</g> 
	</symbol>
	
<symbol id="potato" xmlns="http://www.w3.org/2000/svg" viewBox="0 0 500 500">
	<title> Potato </title>
	<path d="M324.7,130.3c23,23.9,50.5,60.9,51.6,62.2c5.7,9.1,12.1,20.4,18.4,33.8c8.8,18.6,13.7,33.5,15.3,38.7
		c5.2,16.2,12.9,40.8,13.5,72.8c0.2,13.9,0.6,33.8-6.6,57.6c-5.2,17.2-15.6,51.7-40.7,69c-44.4,30.5-120.7-1.8-161.9-34.3
		c-13.4-10.5-14-13.9-27.6-32.9c-14.5-20.2-31.2-35.2-53.4-66.9C115.5,305,106.3,283,98,263c-8.4-20.2-19-45.5-23.2-73.3
		c-1.6-10.2-15.7-110.2,36.5-142.2c42.9-26.3,106.3,8.3,141.4,27.5C291.2,96,318.4,123.8,324.7,130.3z"/>
	<path d="M-152,315.7"/>
</symbol>
	
	
	
	
</svg>