<svg id="apple" xmlns="http://www.w3.org/2000/svg" viewBox="0 0 500 500">
<g>
	<title> Apple </title>
	<path d="M475.3,223c-4.4-19.4-16.3-64.3-57.2-97.4c-9.2-7.4-36.7-29.2-76-32.5c-10.5-0.9-21.3,1.1-21.3,1.1
		c-14.8,1.9-23.8,5.6-35.1,9.2c-3.4,1.1-25.3,7.9-41.9,9.4c-1.4,0.1-2.7,0.2-4.1,0.3c-4.4-18.7-5.6-38.9,8.1-48
		c7.3-4.9,16.7-5.1,19.3-11.9c3.9-10-9.7-26-21.7-25.8c-16,0.2-25.6,29-26.5,31.8c-6.1,18.3-3.4,36.7,2.4,52.2
		c-17.7-4.2-29.6-14.7-54.3-16.5c-25.7-1.9-45.7,6.9-57.2,12c-54.1,23.8-84.4,91.5-88.3,146.1c-8.9,126,120.2,227.4,176.3,222.1
		c5.2-0.5,24.3-3.3,52.1-3.4c28-0.1,46.1,2.7,54.7,3.4c60.8,5,120.3-55.9,123.9-59.8C499.3,336.7,477.1,231,475.3,223z M61.6,220.8
		c-6.1-6.7,13.4-49.9,46.5-73.9c22.5-16.3,55.3-26.7,59.1-19.2C174.8,142.6,72.4,232.7,61.6,220.8z"/>
</g>
</svg>
