<svg id="carrot" xmlns="http://www.w3.org/2000/svg" viewBox="0 0 500 500">
<g>
	<title> Carrot </title>
	<path d="M433.7,425.2c-135.1-199.3-166-323.3-217.2-318.4c-12.4,1.2-25.9,9.9-38.1,21.9c0-0.1-0.1-0.2-0.1-0.2
		c3.8-9.1,7.7-32.1,8.9-50.3c0.6-9,1.1-16.2-0.8-17.1c-3.1-1.5-12.5,15.8-15.1,35.1c-0.1,1-0.3,2-0.4,3c-1.9-9.4-2.2-13.9-4.1-24.2
		c-0.6-3.6-7.4-40.6-11.1-40.2c-2.9,0.3-3.4,23.5-3.5,28.2c-0.4,16,1.1,23-1.2,23.9c-3.3,1.2-9.4-11.9-19.5-25.3
		c-18.8-24.9-43.5-40.1-46-37.6c-3.8,3.7,40.5,50.7,35.1,56.2c-1.3,1.4-5.4,0-20-8.6c-10.9-6.4-19.8-12-32.7-20.6
		c-14.4-9.7-21.7-14.5-22.5-13.7c-2.1,2.1,11,19.6,24.2,33.7c17.9,19.1,32.2,28,30.7,30.7c-1.3,2.3-12.6-3.6-34.8-9.2
		c-14.3-3.6-35.1-7.6-36-5c-0.4,1.3,4.3,3.9,30.8,17.5c21,10.8,30.1,15.4,29.4,17.7c-0.6,2.1-8.8-0.4-22.6,1.6
		c-10.4,1.5-22,5.3-21.8,7.5c0.4,3.8,37.1,0.6,67,10.3c-19,0.8-36.3,3.3-36.4,6.1c-0.1,3,20.4,6.3,38.6,5.9
		c6.4-0.1,12.9-0.7,18.7-1.5c2.6,1.9,5.1,4.2,7.4,6.9c3.7,4.1,6.1,8,7.5,10.8c-4,8.1-8.1,17.9-9.5,24.8
		c-17,88.7,310.8,311.8,326.5,283.5C468.2,473.3,459.1,462.6,433.7,425.2z M150.7,218.7c-1.1-0.4,7.6-27,30.1-53.1
		c10.6-12.3,22.3-22.2,23-21.6c0.8,0.6-12.1,13.3-27.2,33.8C158.4,202.7,151.6,219,150.7,218.7z M161,240.5
		c-0.8-0.4,6.3-22.3,23.3-43.3c8.1-9.9,16.8-17.8,17.3-17.3c0.6,0.5-9.2,10.7-20.7,27.3C167,227.4,161.6,240.8,161,240.5z
		 M173,256.6c-0.6-0.4,5.9-20.4,20.4-39.2c6.9-8.9,14.2-15.8,14.6-15.4c0.4,0.5-7.8,9.6-17.7,24.5
		C178.3,244.7,173.5,256.9,173,256.6z M196.7,249.9c-8.6,14.5-12.1,24.2-12.4,23.9c-0.4-0.3,4.3-16.2,14.6-31.2
		c4.9-7.1,10.1-12.6,10.4-12.3C209.6,230.7,203.8,238,196.7,249.9z"/>
</g>
</svg>
