
<svg id="eggplant" xmlns="http://www.w3.org/2000/svg" viewBox="0 0 500 500">
<g>
	<title> Eggplant </title>
	<path d="M379.2,195.1c-34-31.2-74.2-50.4-113.5-57.1c-21-61.1-70.6-101.8-122.4-95.3c-10.6,1.3-20.5,4.5-29.7,9.3L105.3,23
		l-10.4,4.9l9.7,29.5C92.5,67.3,69.7,89,57.2,123.9c0,0-12.7,35.5-6.9,80.1c0.9,7.1,2.4,14.2,2.4,14.2c0.4,2.4,1,5.2,1.9,8.2
		c3.6,14.3,8.7,27.6,15,39.8c6.6,14.8,14.9,31.5,24.4,48.7c7.8,14.1,15.7,27.4,23.2,39.1c11.8,23.1,28.3,45.1,49.4,64.5
		c78.1,71.8,189,80,247.7,18.2C473.1,375.2,457.3,266.9,379.2,195.1z M387.4,236.2c-7.2,13.3-158.5-61.7-154.1-74.9
		c1-3,10-2.1,27.3-0.3c41.4,4.3,70.2,22.4,79.7,28.8C360.3,203.3,391,229.8,387.4,236.2z"/>
</g>
</svg>
