
<svg id="grapes" xmlns="http://www.w3.org/2000/svg" viewBox="0 0 500 500">
<g>
	<title> Grapes </title>
	<path class="st1" d="M152.6,106.1c3.9-4.3-37.5-40.1-27.3-59.1c4-7.3,13.5-8.2,13.3-13.7c-0.3-6.7-14.9-14.7-24.6-10.9
		c-11.3,4.4-13.7,24-11.6,36.5C107.7,92,149.1,109.9,152.6,106.1z"/>
	
	<ellipse transform="matrix(0.9505 -0.3106 0.3106 0.9505 -115.8093 145.3241)" class="st1" cx="398.3" cy="436.2" rx="50" ry="50"/>
	<ellipse transform="matrix(0.9505 -0.3106 0.3106 0.9505 -21.2841 62.9575)" class="st1" cx="187" cy="98.3" rx="50" ry="50"/>
	<ellipse transform="matrix(0.9505 -0.3106 0.3106 0.9505 -35.498 46.0034)" class="st1" cx="126.7" cy="134.4" rx="50" ry="50"/>
	<ellipse transform="matrix(0.9505 -0.3106 0.3106 0.9505 -19.2256 86.8169)" class="st1" cx="262.9" cy="103.8" rx="56" ry="56"/>
	<ellipse transform="matrix(0.9505 -0.3106 0.3106 0.9505 -57.3766 41.2603)" class="st1" cx="100.8" cy="200.8" rx="50" ry="50"/>
	<ellipse transform="matrix(0.9505 -0.3106 0.3106 0.9505 -94.5618 133.4889)" class="st1" cx="371.8" cy="363.6" rx="50" ry="50"/>
	<ellipse transform="matrix(0.9505 -0.3106 0.3106 0.9505 -80.4781 115.3223)" class="st1" cx="321.8" cy="310.3" rx="50" ry="50"/>
	<ellipse transform="matrix(0.9505 -0.3106 0.3106 0.9505 -113.0038 117.676)" class="st1" cx="312.9" cy="413.6" rx="50" ry="50"/>
	<ellipse transform="matrix(0.9505 -0.3106 0.3106 0.9505 -90.9748 68.5882)" class="st1" cx="169.8" cy="319.9" rx="50" ry="50"/>
	<ellipse transform="matrix(0.9505 -0.3106 0.3106 0.9505 -58.7052 116.7775)" class="st1" cx="337.3" cy="242.7" rx="50" ry="50"/>
	<ellipse transform="matrix(0.9505 -0.3106 0.3106 0.9505 -74.9309 56.8701)" class="st1" cx="141.1" cy="263.7" rx="50" ry="50"/>
	<ellipse transform="matrix(0.9505 -0.3106 0.3106 0.9505 -34.5822 105.4427)" class="st1" cx="313.7" cy="161.3" rx="50" ry="50"/>
	<ellipse transform="matrix(0.9505 -0.3106 0.3106 0.9505 -47.5619 94.1563)" class="st1" cx="271.8" cy="196.4" rx="50" ry="50"/>
	<ellipse transform="matrix(0.9505 -0.3106 0.3106 0.9505 -60.5172 75.7822)" class="st1" cx="207.7" cy="227.9" rx="50" ry="50"/>
	<ellipse transform="matrix(0.9505 -0.3106 0.3106 0.9505 -75.9502 95.8511)" class="st1" cx="262.9" cy="286.4" rx="50" ry="50"/>
	
	<ellipse transform="matrix(0.9505 -0.3106 0.3106 0.9505 -101.2853 103.8318)" class="st1" cx="275.3" cy="369.9" rx="50" ry="50"/>
	<ellipse transform="matrix(0.9505 -0.3106 0.3106 0.9505 -31.1074 74.977)" class="st1" cx="219.8" cy="135.1" rx="50" ry="50"/>
	<ellipse transform="matrix(0.9505 -0.3106 0.3106 0.9505 -51.1763 59.5439)" class="st1" cx="161.3" cy="190.4" rx="50" ry="50"/>
	<ellipse transform="matrix(0.806 -0.5919 0.5919 0.806 -177.6322 197.8061)" class="st1" cx="213" cy="369.9" rx="50" ry="50"/>
	<ellipse transform="matrix(0.9505 -0.3106 0.3106 0.9505 -83.1235 81.8619)" class="st1" cx="215.4" cy="301.9" rx="50" ry="50"/>
</g>
</svg>
