
<svg id="pineapple" xmlns="http://www.w3.org/2000/svg" viewBox="0 0 500 500">
<g>
	<title> Pineapple </title>
	<path class="st1" d="M306.7,173.7c-0.9-0.4-1.7-0.9-2.6-1.3l40.8-99.1l-40.7,47.7l8.1-85.7l-38.8,78.9l14.5-62.6l-34.1,53.9
		l-4.9-78.7l-22.8,77L212.4,22l-14.8,85.5l-28.1-81.8l-0.7,100.8l-37.1-34.6l42.7,86.3C122.1,212.5,122.9,305.4,123,321
		c0.7,79.9,41.6,147,68.7,154c1.7,0.4,22,5.4,46.8,6c4.6,0.1,8.8,0,10.3,0c0,0,21.1-0.4,37.5-3.3c22-3.9,76-67.9,78-157.3
		C364.5,308.8,366.8,204.4,306.7,173.7z"/>
</g> 
</svg>
